<mxfile host="app.diagrams.net" agent="Mozilla/5.0 (Windows NT 10.0; Win64; x64) AppleWebKit/537.36 (KHTML, like Gecko) Chrome/137.0.0.0 Safari/537.36 Edg/137.0.0.0" version="27.1.6">
  <diagram name="Page-1" id="FDcgBepIFSiOmwwHl9qi">
    <mxGraphModel dx="1456" dy="1978" grid="1" gridSize="10" guides="1" tooltips="1" connect="1" arrows="1" fold="1" page="1" pageScale="1" pageWidth="850" pageHeight="1100" math="0" shadow="0">
      <root>
        <mxCell id="0" />
        <mxCell id="1" parent="0" />
        <mxCell id="96Rs1fj9_P6RKk6u0Oii-1" value="" style="rounded=0;whiteSpace=wrap;html=1;fontStyle=1;fontSize=13;" parent="1" vertex="1">
          <mxGeometry x="405" y="-470" width="870" height="1270" as="geometry" />
        </mxCell>
        <mxCell id="96Rs1fj9_P6RKk6u0Oii-2" value="Hệ thống hỗ trợ học tập eLearning trên nền tảng web" style="text;html=1;align=center;verticalAlign=middle;whiteSpace=wrap;rounded=0;fontStyle=1;fontSize=16;" parent="1" vertex="1">
          <mxGeometry x="629.67" y="-460" width="455" height="20" as="geometry" />
        </mxCell>
        <mxCell id="96Rs1fj9_P6RKk6u0Oii-4" style="rounded=0;orthogonalLoop=1;jettySize=auto;html=1;entryX=0.768;entryY=0.938;entryDx=0;entryDy=0;endArrow=none;startFill=0;entryPerimeter=0;fontStyle=1" parent="1" source="96Rs1fj9_P6RKk6u0Oii-11" target="96Rs1fj9_P6RKk6u0Oii-79" edge="1">
          <mxGeometry relative="1" as="geometry" />
        </mxCell>
        <mxCell id="96Rs1fj9_P6RKk6u0Oii-6" style="rounded=0;orthogonalLoop=1;jettySize=auto;html=1;entryX=0.929;entryY=0.28;entryDx=0;entryDy=0;endArrow=none;startFill=0;entryPerimeter=0;fontStyle=1" parent="1" source="96Rs1fj9_P6RKk6u0Oii-11" target="96Rs1fj9_P6RKk6u0Oii-48" edge="1">
          <mxGeometry relative="1" as="geometry" />
        </mxCell>
        <mxCell id="96Rs1fj9_P6RKk6u0Oii-7" style="rounded=0;orthogonalLoop=1;jettySize=auto;html=1;entryX=0.689;entryY=0.045;entryDx=0;entryDy=0;endArrow=none;startFill=0;entryPerimeter=0;fontStyle=1" parent="1" source="96Rs1fj9_P6RKk6u0Oii-11" target="96Rs1fj9_P6RKk6u0Oii-42" edge="1">
          <mxGeometry relative="1" as="geometry" />
        </mxCell>
        <mxCell id="96Rs1fj9_P6RKk6u0Oii-9" style="rounded=0;orthogonalLoop=1;jettySize=auto;html=1;endArrow=none;startFill=0;fontStyle=1" parent="1" source="96Rs1fj9_P6RKk6u0Oii-11" target="96Rs1fj9_P6RKk6u0Oii-45" edge="1">
          <mxGeometry relative="1" as="geometry" />
        </mxCell>
        <mxCell id="96Rs1fj9_P6RKk6u0Oii-122" style="edgeStyle=none;rounded=0;orthogonalLoop=1;jettySize=auto;html=1;endArrow=none;startFill=0;entryX=0.642;entryY=0.979;entryDx=0;entryDy=0;entryPerimeter=0;fontStyle=1" parent="1" source="96Rs1fj9_P6RKk6u0Oii-11" target="96Rs1fj9_P6RKk6u0Oii-112" edge="1">
          <mxGeometry relative="1" as="geometry" />
        </mxCell>
        <mxCell id="96Rs1fj9_P6RKk6u0Oii-168" style="edgeStyle=none;rounded=0;orthogonalLoop=1;jettySize=auto;html=1;entryX=1;entryY=0.5;entryDx=0;entryDy=0;endArrow=none;startFill=0;fontStyle=1" parent="1" source="96Rs1fj9_P6RKk6u0Oii-11" target="96Rs1fj9_P6RKk6u0Oii-167" edge="1">
          <mxGeometry relative="1" as="geometry" />
        </mxCell>
        <mxCell id="KgGjZ4OBaKO0QzJk6a3O-188" style="rounded=0;orthogonalLoop=1;jettySize=auto;html=1;entryX=0.5;entryY=1;entryDx=0;entryDy=0;endArrow=none;startFill=0;fontStyle=1" parent="1" source="96Rs1fj9_P6RKk6u0Oii-11" target="KgGjZ4OBaKO0QzJk6a3O-154" edge="1">
          <mxGeometry relative="1" as="geometry" />
        </mxCell>
        <mxCell id="96Rs1fj9_P6RKk6u0Oii-11" value="Quản trị viên" style="shape=umlActor;verticalLabelPosition=bottom;verticalAlign=top;html=1;outlineConnect=0;fontStyle=1;fontSize=13;" parent="1" vertex="1">
          <mxGeometry x="1330" y="360" width="30" height="60" as="geometry" />
        </mxCell>
        <mxCell id="96Rs1fj9_P6RKk6u0Oii-34" value="Đăng nhập" style="ellipse;whiteSpace=wrap;html=1;fontStyle=1;fontSize=13;" parent="1" vertex="1">
          <mxGeometry x="530" y="380" width="120" height="60" as="geometry" />
        </mxCell>
        <mxCell id="96Rs1fj9_P6RKk6u0Oii-40" style="rounded=0;orthogonalLoop=1;jettySize=auto;html=1;endArrow=open;endFill=0;dashed=1;fontStyle=1" parent="1" source="96Rs1fj9_P6RKk6u0Oii-42" target="96Rs1fj9_P6RKk6u0Oii-34" edge="1">
          <mxGeometry relative="1" as="geometry" />
        </mxCell>
        <mxCell id="96Rs1fj9_P6RKk6u0Oii-41" value="&amp;lt;&amp;lt;include&amp;gt;&amp;gt;" style="edgeLabel;html=1;align=center;verticalAlign=middle;resizable=0;points=[];fontStyle=1" parent="96Rs1fj9_P6RKk6u0Oii-40" vertex="1" connectable="0">
          <mxGeometry x="0.3831" relative="1" as="geometry">
            <mxPoint as="offset" />
          </mxGeometry>
        </mxCell>
        <mxCell id="96Rs1fj9_P6RKk6u0Oii-42" value="&lt;p style=&quot;white-space-collapse: preserve;&quot; dir=&quot;auto&quot;&gt;Quản lý tài chính&lt;/p&gt;" style="ellipse;whiteSpace=wrap;html=1;fontStyle=1;fontSize=13;" parent="1" vertex="1">
          <mxGeometry x="864.67" y="660" width="120" height="60" as="geometry" />
        </mxCell>
        <mxCell id="96Rs1fj9_P6RKk6u0Oii-43" style="rounded=0;orthogonalLoop=1;jettySize=auto;html=1;endArrow=open;endFill=0;dashed=1;entryX=0.5;entryY=0;entryDx=0;entryDy=0;fontStyle=1" parent="1" source="96Rs1fj9_P6RKk6u0Oii-45" target="96Rs1fj9_P6RKk6u0Oii-34" edge="1">
          <mxGeometry relative="1" as="geometry" />
        </mxCell>
        <mxCell id="96Rs1fj9_P6RKk6u0Oii-44" value="&amp;lt;&amp;lt;include&amp;gt;&amp;gt;" style="edgeLabel;html=1;align=center;verticalAlign=middle;resizable=0;points=[];fontStyle=1" parent="96Rs1fj9_P6RKk6u0Oii-43" vertex="1" connectable="0">
          <mxGeometry x="0.4745" y="-3" relative="1" as="geometry">
            <mxPoint x="19" y="-41" as="offset" />
          </mxGeometry>
        </mxCell>
        <mxCell id="96Rs1fj9_P6RKk6u0Oii-45" value="&lt;p style=&quot;white-space-collapse: preserve;&quot; dir=&quot;auto&quot;&gt;Tương tác với chatbot&lt;/p&gt;" style="ellipse;whiteSpace=wrap;html=1;fontStyle=1;fontSize=13;" parent="1" vertex="1">
          <mxGeometry x="540.14" y="-20" width="120" height="60" as="geometry" />
        </mxCell>
        <mxCell id="96Rs1fj9_P6RKk6u0Oii-46" style="rounded=0;orthogonalLoop=1;jettySize=auto;html=1;endArrow=open;endFill=0;dashed=1;entryX=0.91;entryY=0.776;entryDx=0;entryDy=0;entryPerimeter=0;fontStyle=1" parent="1" source="96Rs1fj9_P6RKk6u0Oii-48" target="96Rs1fj9_P6RKk6u0Oii-34" edge="1">
          <mxGeometry relative="1" as="geometry" />
        </mxCell>
        <mxCell id="96Rs1fj9_P6RKk6u0Oii-47" value="&amp;lt;&amp;lt;include&amp;gt;&amp;gt;" style="edgeLabel;html=1;align=center;verticalAlign=middle;resizable=0;points=[];fontStyle=1" parent="96Rs1fj9_P6RKk6u0Oii-46" vertex="1" connectable="0">
          <mxGeometry x="0.337" relative="1" as="geometry">
            <mxPoint as="offset" />
          </mxGeometry>
        </mxCell>
        <mxCell id="96Rs1fj9_P6RKk6u0Oii-48" value="&lt;p style=&quot;white-space-collapse: preserve;&quot; dir=&quot;auto&quot;&gt;Quản lý danh mục&lt;/p&gt;" style="ellipse;whiteSpace=wrap;html=1;fontStyle=1;fontSize=13;" parent="1" vertex="1">
          <mxGeometry x="870" y="480" width="120" height="60" as="geometry" />
        </mxCell>
        <mxCell id="96Rs1fj9_P6RKk6u0Oii-57" style="rounded=0;orthogonalLoop=1;jettySize=auto;html=1;exitX=0;exitY=0;exitDx=0;exitDy=0;fontStyle=1" parent="1" edge="1">
          <mxGeometry relative="1" as="geometry">
            <mxPoint x="877.1556296513158" y="368.9978576722133" as="sourcePoint" />
            <mxPoint x="876.3792108470002" y="369.4012940110829" as="targetPoint" />
          </mxGeometry>
        </mxCell>
        <mxCell id="96Rs1fj9_P6RKk6u0Oii-79" value="&lt;p style=&quot;white-space-collapse: preserve;&quot; dir=&quot;auto&quot;&gt;Phân công giảng dạy và lớp học thuật&lt;/p&gt;" style="ellipse;whiteSpace=wrap;html=1;fontStyle=1;fontSize=13;" parent="1" vertex="1">
          <mxGeometry x="870.1400000000001" y="-60" width="120" height="60" as="geometry" />
        </mxCell>
        <mxCell id="96Rs1fj9_P6RKk6u0Oii-105" style="rounded=0;orthogonalLoop=1;jettySize=auto;html=1;entryX=0.24;entryY=0.09;entryDx=0;entryDy=0;endArrow=open;endFill=0;dashed=1;entryPerimeter=0;fontStyle=1" parent="1" source="96Rs1fj9_P6RKk6u0Oii-107" target="96Rs1fj9_P6RKk6u0Oii-34" edge="1">
          <mxGeometry relative="1" as="geometry" />
        </mxCell>
        <mxCell id="96Rs1fj9_P6RKk6u0Oii-110" value="&amp;lt;&amp;lt;extend&amp;gt;&amp;gt;" style="edgeLabel;html=1;align=center;verticalAlign=middle;resizable=0;points=[];fontStyle=1" parent="96Rs1fj9_P6RKk6u0Oii-105" vertex="1" connectable="0">
          <mxGeometry x="-0.3654" y="-1" relative="1" as="geometry">
            <mxPoint as="offset" />
          </mxGeometry>
        </mxCell>
        <mxCell id="96Rs1fj9_P6RKk6u0Oii-107" value="&lt;p style=&quot;white-space-collapse: preserve;&quot; dir=&quot;auto&quot;&gt;Quên mật khẩu&lt;/p&gt;" style="ellipse;whiteSpace=wrap;html=1;fontStyle=1;fontSize=13;" parent="1" vertex="1">
          <mxGeometry x="460.14" y="200" width="120" height="60" as="geometry" />
        </mxCell>
        <mxCell id="96Rs1fj9_P6RKk6u0Oii-112" value="&lt;p style=&quot;white-space-collapse: preserve;&quot; dir=&quot;auto&quot;&gt;Quản lý người dùng&lt;/p&gt;" style="ellipse;whiteSpace=wrap;html=1;fontStyle=1;fontSize=13;" parent="1" vertex="1">
          <mxGeometry x="870.14" y="230" width="120" height="60" as="geometry" />
        </mxCell>
        <mxCell id="96Rs1fj9_P6RKk6u0Oii-115" style="rounded=0;orthogonalLoop=1;jettySize=auto;html=1;entryX=0.933;entryY=0.276;entryDx=0;entryDy=0;entryPerimeter=0;dashed=1;endArrow=open;endFill=0;fontStyle=1" parent="1" source="96Rs1fj9_P6RKk6u0Oii-112" target="96Rs1fj9_P6RKk6u0Oii-34" edge="1">
          <mxGeometry relative="1" as="geometry" />
        </mxCell>
        <mxCell id="96Rs1fj9_P6RKk6u0Oii-116" value="&amp;lt;&amp;lt;include&amp;gt;&amp;gt;" style="edgeLabel;html=1;align=center;verticalAlign=middle;resizable=0;points=[];fontStyle=1" parent="96Rs1fj9_P6RKk6u0Oii-115" vertex="1" connectable="0">
          <mxGeometry x="0.355" relative="1" as="geometry">
            <mxPoint as="offset" />
          </mxGeometry>
        </mxCell>
        <mxCell id="96Rs1fj9_P6RKk6u0Oii-117" style="rounded=0;orthogonalLoop=1;jettySize=auto;html=1;entryX=1;entryY=0;entryDx=0;entryDy=0;dashed=1;endArrow=open;endFill=0;fontStyle=1" parent="1" source="96Rs1fj9_P6RKk6u0Oii-79" target="96Rs1fj9_P6RKk6u0Oii-34" edge="1">
          <mxGeometry relative="1" as="geometry" />
        </mxCell>
        <mxCell id="96Rs1fj9_P6RKk6u0Oii-120" value="&amp;lt;&amp;lt;include&amp;gt;&amp;gt;" style="edgeLabel;html=1;align=center;verticalAlign=middle;resizable=0;points=[];fontStyle=1" parent="96Rs1fj9_P6RKk6u0Oii-117" vertex="1" connectable="0">
          <mxGeometry x="0.4589" y="-2" relative="1" as="geometry">
            <mxPoint as="offset" />
          </mxGeometry>
        </mxCell>
        <mxCell id="96Rs1fj9_P6RKk6u0Oii-125" style="edgeStyle=none;rounded=0;orthogonalLoop=1;jettySize=auto;html=1;entryX=0.931;entryY=0.263;entryDx=0;entryDy=0;entryPerimeter=0;dashed=1;endArrow=open;endFill=0;fontStyle=1" parent="1" source="96Rs1fj9_P6RKk6u0Oii-123" target="96Rs1fj9_P6RKk6u0Oii-112" edge="1">
          <mxGeometry relative="1" as="geometry" />
        </mxCell>
        <mxCell id="96Rs1fj9_P6RKk6u0Oii-135" value="&amp;lt;&amp;lt;extend&amp;gt;&amp;gt;" style="edgeLabel;html=1;align=center;verticalAlign=middle;resizable=0;points=[];fontStyle=1" parent="96Rs1fj9_P6RKk6u0Oii-125" vertex="1" connectable="0">
          <mxGeometry x="-0.1526" y="-1" relative="1" as="geometry">
            <mxPoint as="offset" />
          </mxGeometry>
        </mxCell>
        <mxCell id="96Rs1fj9_P6RKk6u0Oii-126" style="edgeStyle=none;rounded=0;orthogonalLoop=1;jettySize=auto;html=1;entryX=1;entryY=0.5;entryDx=0;entryDy=0;dashed=1;endArrow=open;endFill=0;fontStyle=1" parent="1" source="96Rs1fj9_P6RKk6u0Oii-124" target="96Rs1fj9_P6RKk6u0Oii-112" edge="1">
          <mxGeometry relative="1" as="geometry" />
        </mxCell>
        <mxCell id="96Rs1fj9_P6RKk6u0Oii-136" value="&amp;lt;&amp;lt;extend&amp;gt;&amp;gt;" style="edgeLabel;html=1;align=center;verticalAlign=middle;resizable=0;points=[];fontStyle=1" parent="96Rs1fj9_P6RKk6u0Oii-126" vertex="1" connectable="0">
          <mxGeometry x="0.0276" relative="1" as="geometry">
            <mxPoint as="offset" />
          </mxGeometry>
        </mxCell>
        <mxCell id="96Rs1fj9_P6RKk6u0Oii-124" value="Quản lý thông tin cá nhân" style="ellipse;whiteSpace=wrap;html=1;fontStyle=1;fontSize=13;" parent="1" vertex="1">
          <mxGeometry x="1080.14" y="270" width="120" height="60" as="geometry" />
        </mxCell>
        <mxCell id="96Rs1fj9_P6RKk6u0Oii-123" value="Phân quyền người dùng" style="ellipse;whiteSpace=wrap;html=1;fontStyle=1;fontSize=13;" parent="1" vertex="1">
          <mxGeometry x="1080.14" y="200" width="120" height="60" as="geometry" />
        </mxCell>
        <mxCell id="96Rs1fj9_P6RKk6u0Oii-129" style="edgeStyle=none;rounded=0;orthogonalLoop=1;jettySize=auto;html=1;dashed=1;endArrow=open;endFill=0;fontStyle=1" parent="1" source="96Rs1fj9_P6RKk6u0Oii-128" target="96Rs1fj9_P6RKk6u0Oii-112" edge="1">
          <mxGeometry relative="1" as="geometry" />
        </mxCell>
        <mxCell id="96Rs1fj9_P6RKk6u0Oii-134" value="&amp;lt;&amp;lt;extend&amp;gt;&amp;gt;" style="edgeLabel;html=1;align=center;verticalAlign=middle;resizable=0;points=[];fontStyle=1" parent="96Rs1fj9_P6RKk6u0Oii-129" vertex="1" connectable="0">
          <mxGeometry x="0.0047" relative="1" as="geometry">
            <mxPoint as="offset" />
          </mxGeometry>
        </mxCell>
        <mxCell id="96Rs1fj9_P6RKk6u0Oii-142" style="edgeStyle=none;rounded=0;orthogonalLoop=1;jettySize=auto;html=1;dashed=1;endArrow=open;endFill=0;fontStyle=1" parent="1" source="96Rs1fj9_P6RKk6u0Oii-137" target="96Rs1fj9_P6RKk6u0Oii-79" edge="1">
          <mxGeometry relative="1" as="geometry" />
        </mxCell>
        <mxCell id="96Rs1fj9_P6RKk6u0Oii-145" value="&amp;lt;&amp;lt;extend&amp;gt;&amp;gt;" style="edgeLabel;html=1;align=center;verticalAlign=middle;resizable=0;points=[];fontStyle=1" parent="96Rs1fj9_P6RKk6u0Oii-142" vertex="1" connectable="0">
          <mxGeometry x="0.2092" y="-2" relative="1" as="geometry">
            <mxPoint as="offset" />
          </mxGeometry>
        </mxCell>
        <mxCell id="96Rs1fj9_P6RKk6u0Oii-137" value="Gán giảng viên cho khóa học" style="ellipse;whiteSpace=wrap;html=1;fontStyle=1;fontSize=13;" parent="1" vertex="1">
          <mxGeometry x="1099.8500000000001" y="-100" width="120" height="60" as="geometry" />
        </mxCell>
        <mxCell id="96Rs1fj9_P6RKk6u0Oii-139" value="Gán giảng viên cho lớp học thuật" style="ellipse;whiteSpace=wrap;html=1;fontStyle=1;fontSize=13;" parent="1" vertex="1">
          <mxGeometry x="1099.8500000000001" y="-20" width="120" height="60" as="geometry" />
        </mxCell>
        <mxCell id="96Rs1fj9_P6RKk6u0Oii-144" style="edgeStyle=none;rounded=0;orthogonalLoop=1;jettySize=auto;html=1;entryX=0.97;entryY=0.629;entryDx=0;entryDy=0;entryPerimeter=0;dashed=1;endArrow=open;endFill=0;fontStyle=1" parent="1" source="96Rs1fj9_P6RKk6u0Oii-139" target="96Rs1fj9_P6RKk6u0Oii-79" edge="1">
          <mxGeometry relative="1" as="geometry" />
        </mxCell>
        <mxCell id="96Rs1fj9_P6RKk6u0Oii-146" value="&amp;lt;&amp;lt;extend&amp;gt;&amp;gt;" style="edgeLabel;html=1;align=center;verticalAlign=middle;resizable=0;points=[];fontStyle=1" parent="96Rs1fj9_P6RKk6u0Oii-144" vertex="1" connectable="0">
          <mxGeometry x="-0.0739" y="1" relative="1" as="geometry">
            <mxPoint as="offset" />
          </mxGeometry>
        </mxCell>
        <mxCell id="96Rs1fj9_P6RKk6u0Oii-161" style="edgeStyle=none;rounded=0;orthogonalLoop=1;jettySize=auto;html=1;dashed=1;endArrow=open;endFill=0;fontStyle=1" parent="1" source="96Rs1fj9_P6RKk6u0Oii-155" target="96Rs1fj9_P6RKk6u0Oii-42" edge="1">
          <mxGeometry relative="1" as="geometry" />
        </mxCell>
        <mxCell id="96Rs1fj9_P6RKk6u0Oii-164" value="&amp;lt;&amp;lt;extend&amp;gt;&amp;gt;" style="edgeLabel;html=1;align=center;verticalAlign=middle;resizable=0;points=[];fontStyle=1" parent="96Rs1fj9_P6RKk6u0Oii-161" vertex="1" connectable="0">
          <mxGeometry x="0.0852" relative="1" as="geometry">
            <mxPoint x="-14" y="-126" as="offset" />
          </mxGeometry>
        </mxCell>
        <mxCell id="96Rs1fj9_P6RKk6u0Oii-155" value="Theo dõi doanh thu" style="ellipse;whiteSpace=wrap;html=1;fontStyle=1;fontSize=13;" parent="1" vertex="1">
          <mxGeometry x="1094.67" y="610" width="120" height="60" as="geometry" />
        </mxCell>
        <mxCell id="96Rs1fj9_P6RKk6u0Oii-178" style="edgeStyle=none;rounded=0;orthogonalLoop=1;jettySize=auto;html=1;endArrow=open;endFill=0;dashed=1;fontStyle=1" parent="1" source="96Rs1fj9_P6RKk6u0Oii-156" target="96Rs1fj9_P6RKk6u0Oii-167" edge="1">
          <mxGeometry relative="1" as="geometry" />
        </mxCell>
        <mxCell id="96Rs1fj9_P6RKk6u0Oii-181" value="&amp;lt;&amp;lt;extend&amp;gt;&amp;gt;" style="edgeLabel;html=1;align=center;verticalAlign=middle;resizable=0;points=[];fontStyle=1" parent="96Rs1fj9_P6RKk6u0Oii-178" vertex="1" connectable="0">
          <mxGeometry x="0.1861" y="1" relative="1" as="geometry">
            <mxPoint as="offset" />
          </mxGeometry>
        </mxCell>
        <mxCell id="96Rs1fj9_P6RKk6u0Oii-156" value="Báo cáo thống kê" style="ellipse;whiteSpace=wrap;html=1;fontStyle=1;fontSize=13;" parent="1" vertex="1">
          <mxGeometry x="1084.67" y="480" width="120" height="60" as="geometry" />
        </mxCell>
        <mxCell id="96Rs1fj9_P6RKk6u0Oii-163" style="edgeStyle=none;rounded=0;orthogonalLoop=1;jettySize=auto;html=1;dashed=1;endArrow=open;endFill=0;fontStyle=1" parent="1" source="96Rs1fj9_P6RKk6u0Oii-157" target="96Rs1fj9_P6RKk6u0Oii-42" edge="1">
          <mxGeometry relative="1" as="geometry" />
        </mxCell>
        <mxCell id="96Rs1fj9_P6RKk6u0Oii-166" value="&amp;lt;&amp;lt;extend&amp;gt;&amp;gt;" style="edgeLabel;html=1;align=center;verticalAlign=middle;resizable=0;points=[];fontStyle=1" parent="96Rs1fj9_P6RKk6u0Oii-163" vertex="1" connectable="0">
          <mxGeometry x="-0.0999" relative="1" as="geometry">
            <mxPoint as="offset" />
          </mxGeometry>
        </mxCell>
        <mxCell id="96Rs1fj9_P6RKk6u0Oii-157" value="Xử lý thanh toán" style="ellipse;whiteSpace=wrap;html=1;fontStyle=1;fontSize=13;" parent="1" vertex="1">
          <mxGeometry x="1094.67" y="720" width="120" height="60" as="geometry" />
        </mxCell>
        <mxCell id="96Rs1fj9_P6RKk6u0Oii-169" style="edgeStyle=none;rounded=0;orthogonalLoop=1;jettySize=auto;html=1;dashed=1;endArrow=open;endFill=0;fontStyle=1" parent="1" source="96Rs1fj9_P6RKk6u0Oii-167" target="96Rs1fj9_P6RKk6u0Oii-34" edge="1">
          <mxGeometry relative="1" as="geometry" />
        </mxCell>
        <mxCell id="96Rs1fj9_P6RKk6u0Oii-186" value="&amp;lt;&amp;lt;include&amp;gt;&amp;gt;" style="edgeLabel;html=1;align=center;verticalAlign=middle;resizable=0;points=[];fontStyle=1" parent="96Rs1fj9_P6RKk6u0Oii-169" vertex="1" connectable="0">
          <mxGeometry x="0.3001" y="-1" relative="1" as="geometry">
            <mxPoint as="offset" />
          </mxGeometry>
        </mxCell>
        <mxCell id="96Rs1fj9_P6RKk6u0Oii-167" value="&lt;p style=&quot;white-space-collapse: preserve;&quot; dir=&quot;auto&quot;&gt;Báo cáo thống kê&lt;/p&gt;" style="ellipse;whiteSpace=wrap;html=1;fontStyle=1;fontSize=13;" parent="1" vertex="1">
          <mxGeometry x="860" y="370" width="120" height="60" as="geometry" />
        </mxCell>
        <mxCell id="96Rs1fj9_P6RKk6u0Oii-176" style="edgeStyle=none;rounded=0;orthogonalLoop=1;jettySize=auto;html=1;endArrow=open;endFill=0;dashed=1;fontStyle=1" parent="1" source="96Rs1fj9_P6RKk6u0Oii-171" target="96Rs1fj9_P6RKk6u0Oii-167" edge="1">
          <mxGeometry relative="1" as="geometry" />
        </mxCell>
        <mxCell id="96Rs1fj9_P6RKk6u0Oii-179" value="&amp;lt;&amp;lt;extend&amp;gt;&amp;gt;" style="edgeLabel;html=1;align=center;verticalAlign=middle;resizable=0;points=[];fontStyle=1" parent="96Rs1fj9_P6RKk6u0Oii-176" vertex="1" connectable="0">
          <mxGeometry x="0.1327" y="3" relative="1" as="geometry">
            <mxPoint x="4" y="-9" as="offset" />
          </mxGeometry>
        </mxCell>
        <mxCell id="96Rs1fj9_P6RKk6u0Oii-171" value="&lt;p style=&quot;white-space-collapse: preserve;&quot; dir=&quot;auto&quot;&gt; Báo cáo học viên/sinh viên&lt;/p&gt;" style="ellipse;whiteSpace=wrap;html=1;fontStyle=1;fontSize=13;" parent="1" vertex="1">
          <mxGeometry x="1084.67" y="340" width="120" height="60" as="geometry" />
        </mxCell>
        <mxCell id="96Rs1fj9_P6RKk6u0Oii-177" style="edgeStyle=none;rounded=0;orthogonalLoop=1;jettySize=auto;html=1;endArrow=open;endFill=0;dashed=1;fontStyle=1" parent="1" source="96Rs1fj9_P6RKk6u0Oii-172" target="96Rs1fj9_P6RKk6u0Oii-167" edge="1">
          <mxGeometry relative="1" as="geometry" />
        </mxCell>
        <mxCell id="96Rs1fj9_P6RKk6u0Oii-180" value="&amp;lt;&amp;lt;extend&amp;gt;&amp;gt;" style="edgeLabel;html=1;align=center;verticalAlign=middle;resizable=0;points=[];fontStyle=1" parent="96Rs1fj9_P6RKk6u0Oii-177" vertex="1" connectable="0">
          <mxGeometry x="-0.0013" y="1" relative="1" as="geometry">
            <mxPoint as="offset" />
          </mxGeometry>
        </mxCell>
        <mxCell id="96Rs1fj9_P6RKk6u0Oii-172" value="&lt;p style=&quot;white-space-collapse: preserve;&quot; dir=&quot;auto&quot;&gt;Báo cáo giảng viên&lt;/p&gt;" style="ellipse;whiteSpace=wrap;html=1;fontStyle=1;fontSize=13;" parent="1" vertex="1">
          <mxGeometry x="1084.67" y="410" width="120" height="60" as="geometry" />
        </mxCell>
        <mxCell id="96Rs1fj9_P6RKk6u0Oii-182" value="Xóa&amp;nbsp;&lt;span style=&quot;background-color: transparent; color: light-dark(rgb(0, 0, 0), rgb(255, 255, 255));&quot;&gt;danh mục&lt;/span&gt;" style="ellipse;whiteSpace=wrap;html=1;fontStyle=1;fontSize=13;" parent="1" vertex="1">
          <mxGeometry x="998.71" y="550" width="120" height="60" as="geometry" />
        </mxCell>
        <mxCell id="L-A-K1zgmUTlrSoMtgNh-1" value="Giảng viên" style="shape=umlActor;verticalLabelPosition=bottom;verticalAlign=top;html=1;outlineConnect=0;fontStyle=1;fontSize=13;" parent="1" vertex="1">
          <mxGeometry x="1330" y="50" width="30" height="60" as="geometry" />
        </mxCell>
        <mxCell id="L-A-K1zgmUTlrSoMtgNh-2" style="edgeStyle=orthogonalEdgeStyle;rounded=0;orthogonalLoop=1;jettySize=auto;html=1;endArrow=block;endFill=0;fontStyle=1" parent="1" source="96Rs1fj9_P6RKk6u0Oii-11" edge="1">
          <mxGeometry relative="1" as="geometry">
            <mxPoint x="1345" y="130" as="targetPoint" />
            <Array as="points">
              <mxPoint x="1345" y="130" />
              <mxPoint x="1345" y="130" />
            </Array>
          </mxGeometry>
        </mxCell>
        <mxCell id="s3GclX2u2Ic17jW2BKlU-1" value="&amp;lt;&amp;lt;extend&amp;gt;&amp;gt;" style="edgeLabel;html=1;align=center;verticalAlign=middle;resizable=0;points=[];fontStyle=1" parent="1" vertex="1" connectable="0">
          <mxGeometry x="1044.7099462833862" y="659.997032170586" as="geometry" />
        </mxCell>
        <mxCell id="bydtYof8P61KNAazuHfW-4" value="Thêm&amp;nbsp;&lt;span style=&quot;background-color: transparent; color: light-dark(rgb(0, 0, 0), rgb(255, 255, 255));&quot;&gt;danh mục&lt;/span&gt;" style="ellipse;whiteSpace=wrap;html=1;fontStyle=1;fontSize=13;" parent="1" vertex="1">
          <mxGeometry x="700" y="570" width="120" height="60" as="geometry" />
        </mxCell>
        <mxCell id="bydtYof8P61KNAazuHfW-3" style="edgeStyle=none;rounded=0;orthogonalLoop=1;jettySize=auto;html=1;dashed=1;endArrow=open;endFill=0;entryX=0;entryY=0.5;entryDx=0;entryDy=0;fontStyle=1" parent="1" source="bydtYof8P61KNAazuHfW-4" target="96Rs1fj9_P6RKk6u0Oii-48" edge="1">
          <mxGeometry relative="1" as="geometry">
            <mxPoint x="550" y="555" as="targetPoint" />
          </mxGeometry>
        </mxCell>
        <mxCell id="bydtYof8P61KNAazuHfW-9" value="&lt;div&gt;Sửa danh mục&lt;/div&gt;" style="ellipse;whiteSpace=wrap;html=1;fontStyle=1;fontSize=13;" parent="1" vertex="1">
          <mxGeometry x="860" y="580" width="120" height="60" as="geometry" />
        </mxCell>
        <mxCell id="bydtYof8P61KNAazuHfW-10" style="edgeStyle=none;rounded=0;orthogonalLoop=1;jettySize=auto;html=1;dashed=1;endArrow=open;endFill=0;entryX=0.5;entryY=1;entryDx=0;entryDy=0;fontStyle=1" parent="1" source="bydtYof8P61KNAazuHfW-9" target="96Rs1fj9_P6RKk6u0Oii-48" edge="1">
          <mxGeometry relative="1" as="geometry">
            <mxPoint x="1060" y="540" as="targetPoint" />
          </mxGeometry>
        </mxCell>
        <mxCell id="bydtYof8P61KNAazuHfW-8" value="&amp;lt;&amp;lt;extend&amp;gt;&amp;gt;" style="edgeLabel;html=1;align=center;verticalAlign=middle;resizable=0;points=[];fontStyle=1" parent="1" vertex="1" connectable="0">
          <mxGeometry x="924.6745162498826" y="569.9977278645484" as="geometry">
            <mxPoint x="5" y="-13" as="offset" />
          </mxGeometry>
        </mxCell>
        <mxCell id="bydtYof8P61KNAazuHfW-2" value="&amp;lt;&amp;lt;extend&amp;gt;&amp;gt;" style="edgeLabel;html=1;align=center;verticalAlign=middle;resizable=0;points=[];fontStyle=1" parent="1" vertex="1" connectable="0">
          <mxGeometry x="830.0045162498826" y="539.9977278645484" as="geometry">
            <mxPoint x="5" y="-13" as="offset" />
          </mxGeometry>
        </mxCell>
        <mxCell id="96Rs1fj9_P6RKk6u0Oii-183" style="edgeStyle=none;rounded=0;orthogonalLoop=1;jettySize=auto;html=1;dashed=1;endArrow=open;endFill=0;fontStyle=1" parent="1" source="96Rs1fj9_P6RKk6u0Oii-182" target="96Rs1fj9_P6RKk6u0Oii-48" edge="1">
          <mxGeometry relative="1" as="geometry" />
        </mxCell>
        <mxCell id="bydtYof8P61KNAazuHfW-14" style="edgeStyle=none;rounded=0;orthogonalLoop=1;jettySize=auto;html=1;dashed=1;endArrow=open;endFill=0;entryX=0;entryY=1;entryDx=0;entryDy=0;fontStyle=1" parent="1" source="bydtYof8P61KNAazuHfW-16" target="96Rs1fj9_P6RKk6u0Oii-42" edge="1">
          <mxGeometry relative="1" as="geometry">
            <mxPoint x="639.67" y="704" as="targetPoint" />
          </mxGeometry>
        </mxCell>
        <mxCell id="bydtYof8P61KNAazuHfW-15" value="&amp;lt;&amp;lt;extend&amp;gt;&amp;gt;" style="edgeLabel;html=1;align=center;verticalAlign=middle;resizable=0;points=[];fontStyle=1" parent="bydtYof8P61KNAazuHfW-14" vertex="1" connectable="0">
          <mxGeometry x="-0.0999" relative="1" as="geometry">
            <mxPoint as="offset" />
          </mxGeometry>
        </mxCell>
        <mxCell id="bydtYof8P61KNAazuHfW-16" value="Xuất báo cáo tài chính" style="ellipse;whiteSpace=wrap;html=1;fontStyle=1;fontSize=13;" parent="1" vertex="1">
          <mxGeometry x="710" y="720" width="120" height="60" as="geometry" />
        </mxCell>
        <mxCell id="bydtYof8P61KNAazuHfW-18" style="edgeStyle=none;rounded=0;orthogonalLoop=1;jettySize=auto;html=1;dashed=1;endArrow=open;endFill=0;entryX=0.669;entryY=0.094;entryDx=0;entryDy=0;entryPerimeter=0;fontStyle=1" parent="1" source="bydtYof8P61KNAazuHfW-20" target="96Rs1fj9_P6RKk6u0Oii-112" edge="1">
          <mxGeometry relative="1" as="geometry">
            <mxPoint x="815.64" y="238" as="targetPoint" />
          </mxGeometry>
        </mxCell>
        <mxCell id="bydtYof8P61KNAazuHfW-19" value="&amp;lt;&amp;lt;extend&amp;gt;&amp;gt;" style="edgeLabel;html=1;align=center;verticalAlign=middle;resizable=0;points=[];fontStyle=1" parent="bydtYof8P61KNAazuHfW-18" vertex="1" connectable="0">
          <mxGeometry x="0.0047" relative="1" as="geometry">
            <mxPoint as="offset" />
          </mxGeometry>
        </mxCell>
        <mxCell id="bydtYof8P61KNAazuHfW-20" value="Sửa người dùng" style="ellipse;whiteSpace=wrap;html=1;fontStyle=1;fontSize=13;" parent="1" vertex="1">
          <mxGeometry x="924.64" y="120" width="120" height="60" as="geometry" />
        </mxCell>
        <mxCell id="bydtYof8P61KNAazuHfW-22" style="edgeStyle=none;rounded=0;orthogonalLoop=1;jettySize=auto;html=1;dashed=1;endArrow=open;endFill=0;entryX=0.422;entryY=0.022;entryDx=0;entryDy=0;entryPerimeter=0;fontStyle=1" parent="1" source="bydtYof8P61KNAazuHfW-24" target="96Rs1fj9_P6RKk6u0Oii-112" edge="1">
          <mxGeometry relative="1" as="geometry">
            <mxPoint x="670.14" y="238" as="targetPoint" />
          </mxGeometry>
        </mxCell>
        <mxCell id="bydtYof8P61KNAazuHfW-23" value="&amp;lt;&amp;lt;extend&amp;gt;&amp;gt;" style="edgeLabel;html=1;align=center;verticalAlign=middle;resizable=0;points=[];fontStyle=1" parent="bydtYof8P61KNAazuHfW-22" vertex="1" connectable="0">
          <mxGeometry x="0.0047" relative="1" as="geometry">
            <mxPoint as="offset" />
          </mxGeometry>
        </mxCell>
        <mxCell id="bydtYof8P61KNAazuHfW-24" value="Thêm người dùng" style="ellipse;whiteSpace=wrap;html=1;fontStyle=1;fontSize=13;" parent="1" vertex="1">
          <mxGeometry x="779.14" y="120" width="120" height="60" as="geometry" />
        </mxCell>
        <mxCell id="bydtYof8P61KNAazuHfW-28" style="edgeStyle=none;rounded=0;orthogonalLoop=1;jettySize=auto;html=1;entryX=1;entryY=1;entryDx=0;entryDy=0;dashed=1;endArrow=open;endFill=0;fontStyle=1" parent="1" source="bydtYof8P61KNAazuHfW-27" target="96Rs1fj9_P6RKk6u0Oii-79" edge="1">
          <mxGeometry relative="1" as="geometry">
            <mxPoint x="880.14" y="38" as="targetPoint" />
          </mxGeometry>
        </mxCell>
        <mxCell id="bydtYof8P61KNAazuHfW-29" value="&amp;lt;&amp;lt;extend&amp;gt;&amp;gt;" style="edgeLabel;html=1;align=center;verticalAlign=middle;resizable=0;points=[];fontStyle=1" parent="bydtYof8P61KNAazuHfW-28" vertex="1" connectable="0">
          <mxGeometry x="-0.0739" y="1" relative="1" as="geometry">
            <mxPoint as="offset" />
          </mxGeometry>
        </mxCell>
        <mxCell id="bydtYof8P61KNAazuHfW-31" value="Thêm lớp học thuật" style="ellipse;whiteSpace=wrap;html=1;fontStyle=1;fontSize=13;" parent="1" vertex="1">
          <mxGeometry x="725.99" y="29.99760947806014" width="120" height="60" as="geometry" />
        </mxCell>
        <mxCell id="bydtYof8P61KNAazuHfW-32" style="edgeStyle=none;rounded=0;orthogonalLoop=1;jettySize=auto;html=1;entryX=0;entryY=1;entryDx=0;entryDy=0;dashed=1;endArrow=open;endFill=0;fontStyle=1" parent="1" source="bydtYof8P61KNAazuHfW-31" target="96Rs1fj9_P6RKk6u0Oii-79" edge="1">
          <mxGeometry relative="1" as="geometry">
            <mxPoint x="694.28" y="0.9976094780601414" as="targetPoint" />
          </mxGeometry>
        </mxCell>
        <mxCell id="bydtYof8P61KNAazuHfW-33" value="&amp;lt;&amp;lt;extend&amp;gt;&amp;gt;" style="edgeLabel;html=1;align=center;verticalAlign=middle;resizable=0;points=[];fontStyle=1" parent="bydtYof8P61KNAazuHfW-32" vertex="1" connectable="0">
          <mxGeometry x="-0.0739" y="1" relative="1" as="geometry">
            <mxPoint as="offset" />
          </mxGeometry>
        </mxCell>
        <mxCell id="bydtYof8P61KNAazuHfW-34" value="Sửa lớp học thuật" style="ellipse;whiteSpace=wrap;html=1;fontStyle=1;fontSize=13;" parent="1" vertex="1">
          <mxGeometry x="864.8100000000001" y="40" width="120" height="60" as="geometry" />
        </mxCell>
        <mxCell id="bydtYof8P61KNAazuHfW-35" style="edgeStyle=none;rounded=0;orthogonalLoop=1;jettySize=auto;html=1;entryX=0.538;entryY=1.037;entryDx=0;entryDy=0;dashed=1;endArrow=open;endFill=0;entryPerimeter=0;fontStyle=1" parent="1" source="bydtYof8P61KNAazuHfW-34" target="96Rs1fj9_P6RKk6u0Oii-79" edge="1">
          <mxGeometry relative="1" as="geometry">
            <mxPoint x="833.1" y="1" as="targetPoint" />
          </mxGeometry>
        </mxCell>
        <mxCell id="bydtYof8P61KNAazuHfW-36" value="&amp;lt;&amp;lt;extend&amp;gt;&amp;gt;" style="edgeLabel;html=1;align=center;verticalAlign=middle;resizable=0;points=[];fontStyle=1" parent="bydtYof8P61KNAazuHfW-35" vertex="1" connectable="0">
          <mxGeometry x="-0.0739" y="1" relative="1" as="geometry">
            <mxPoint as="offset" />
          </mxGeometry>
        </mxCell>
        <mxCell id="KgGjZ4OBaKO0QzJk6a3O-136" value="&lt;p style=&quot;white-space-collapse: preserve;&quot; dir=&quot;auto&quot;&gt;Quản lý chương trình đào tạo&lt;/p&gt;" style="ellipse;whiteSpace=wrap;html=1;fontStyle=1;fontSize=13;" parent="1" vertex="1">
          <mxGeometry x="870.1399999999999" y="-240" width="120" height="60" as="geometry" />
        </mxCell>
        <mxCell id="KgGjZ4OBaKO0QzJk6a3O-139" value="Thêm chương trình" style="ellipse;whiteSpace=wrap;html=1;fontStyle=1;fontSize=13;" parent="1" vertex="1">
          <mxGeometry x="730" y="-160.00239052193984" width="120" height="60" as="geometry" />
        </mxCell>
        <mxCell id="KgGjZ4OBaKO0QzJk6a3O-140" style="edgeStyle=none;rounded=0;orthogonalLoop=1;jettySize=auto;html=1;entryX=0;entryY=1;entryDx=0;entryDy=0;dashed=1;endArrow=open;endFill=0;fontStyle=1" parent="1" source="KgGjZ4OBaKO0QzJk6a3O-139" target="KgGjZ4OBaKO0QzJk6a3O-136" edge="1">
          <mxGeometry relative="1" as="geometry">
            <mxPoint x="888" y="-150" as="targetPoint" />
          </mxGeometry>
        </mxCell>
        <mxCell id="KgGjZ4OBaKO0QzJk6a3O-141" value="&amp;lt;&amp;lt;extend&amp;gt;&amp;gt;" style="edgeLabel;html=1;align=center;verticalAlign=middle;resizable=0;points=[];fontStyle=1" parent="KgGjZ4OBaKO0QzJk6a3O-140" vertex="1" connectable="0">
          <mxGeometry x="-0.0739" y="1" relative="1" as="geometry">
            <mxPoint as="offset" />
          </mxGeometry>
        </mxCell>
        <mxCell id="KgGjZ4OBaKO0QzJk6a3O-143" value="Sửa chương trình" style="ellipse;whiteSpace=wrap;html=1;fontStyle=1;fontSize=13;" parent="1" vertex="1">
          <mxGeometry x="870" y="-140.00239052193984" width="120" height="60" as="geometry" />
        </mxCell>
        <mxCell id="KgGjZ4OBaKO0QzJk6a3O-144" style="edgeStyle=none;rounded=0;orthogonalLoop=1;jettySize=auto;html=1;entryX=0.5;entryY=1;entryDx=0;entryDy=0;dashed=1;endArrow=open;endFill=0;fontStyle=1" parent="1" source="KgGjZ4OBaKO0QzJk6a3O-143" target="KgGjZ4OBaKO0QzJk6a3O-136" edge="1">
          <mxGeometry relative="1" as="geometry">
            <mxPoint x="1028.14" y="-154.5" as="targetPoint" />
          </mxGeometry>
        </mxCell>
        <mxCell id="KgGjZ4OBaKO0QzJk6a3O-145" value="&amp;lt;&amp;lt;extend&amp;gt;&amp;gt;" style="edgeLabel;html=1;align=center;verticalAlign=middle;resizable=0;points=[];fontStyle=1" parent="KgGjZ4OBaKO0QzJk6a3O-144" vertex="1" connectable="0">
          <mxGeometry x="-0.0739" y="1" relative="1" as="geometry">
            <mxPoint as="offset" />
          </mxGeometry>
        </mxCell>
        <mxCell id="KgGjZ4OBaKO0QzJk6a3O-146" value="Xóa chương trình" style="ellipse;whiteSpace=wrap;html=1;fontStyle=1;fontSize=13;" parent="1" vertex="1">
          <mxGeometry x="1010" y="-160.00239052193984" width="120" height="60" as="geometry" />
        </mxCell>
        <mxCell id="KgGjZ4OBaKO0QzJk6a3O-147" style="edgeStyle=none;rounded=0;orthogonalLoop=1;jettySize=auto;html=1;entryX=1;entryY=1;entryDx=0;entryDy=0;dashed=1;endArrow=open;endFill=0;fontStyle=1" parent="1" source="KgGjZ4OBaKO0QzJk6a3O-146" target="KgGjZ4OBaKO0QzJk6a3O-136" edge="1">
          <mxGeometry relative="1" as="geometry">
            <mxPoint x="1168" y="-180" as="targetPoint" />
          </mxGeometry>
        </mxCell>
        <mxCell id="KgGjZ4OBaKO0QzJk6a3O-148" value="&amp;lt;&amp;lt;extend&amp;gt;&amp;gt;" style="edgeLabel;html=1;align=center;verticalAlign=middle;resizable=0;points=[];fontStyle=1" parent="KgGjZ4OBaKO0QzJk6a3O-147" vertex="1" connectable="0">
          <mxGeometry x="-0.0739" y="1" relative="1" as="geometry">
            <mxPoint as="offset" />
          </mxGeometry>
        </mxCell>
        <mxCell id="KgGjZ4OBaKO0QzJk6a3O-150" style="edgeStyle=none;rounded=0;orthogonalLoop=1;jettySize=auto;html=1;dashed=1;endArrow=open;endFill=0;entryX=1;entryY=0.5;entryDx=0;entryDy=0;fontStyle=1" parent="1" source="KgGjZ4OBaKO0QzJk6a3O-152" target="KgGjZ4OBaKO0QzJk6a3O-136" edge="1">
          <mxGeometry relative="1" as="geometry">
            <mxPoint x="981.8199999999999" y="-180" as="targetPoint" />
          </mxGeometry>
        </mxCell>
        <mxCell id="KgGjZ4OBaKO0QzJk6a3O-151" value="&amp;lt;&amp;lt;extend&amp;gt;&amp;gt;" style="edgeLabel;html=1;align=center;verticalAlign=middle;resizable=0;points=[];fontStyle=1" parent="KgGjZ4OBaKO0QzJk6a3O-150" vertex="1" connectable="0">
          <mxGeometry x="0.2092" y="-2" relative="1" as="geometry">
            <mxPoint x="13" y="2" as="offset" />
          </mxGeometry>
        </mxCell>
        <mxCell id="KgGjZ4OBaKO0QzJk6a3O-152" value="Gán các khóa học vào chương trình" style="ellipse;whiteSpace=wrap;html=1;fontStyle=1;fontSize=13;" parent="1" vertex="1">
          <mxGeometry x="1094.67" y="-240" width="120" height="60" as="geometry" />
        </mxCell>
        <mxCell id="KgGjZ4OBaKO0QzJk6a3O-154" value="&lt;p style=&quot;white-space-collapse: preserve;&quot; dir=&quot;auto&quot;&gt;Quản lý khoa, ngành&lt;/p&gt;" style="ellipse;whiteSpace=wrap;html=1;fontStyle=1;fontSize=13;" parent="1" vertex="1">
          <mxGeometry x="870.1399999999999" y="-420" width="120" height="60" as="geometry" />
        </mxCell>
        <mxCell id="KgGjZ4OBaKO0QzJk6a3O-155" value="Thêm khoa" style="ellipse;whiteSpace=wrap;html=1;fontStyle=1;fontSize=13;" parent="1" vertex="1">
          <mxGeometry x="650" y="-410.00239052193984" width="120" height="60" as="geometry" />
        </mxCell>
        <mxCell id="KgGjZ4OBaKO0QzJk6a3O-156" style="edgeStyle=none;rounded=0;orthogonalLoop=1;jettySize=auto;html=1;entryX=0;entryY=0.5;entryDx=0;entryDy=0;dashed=1;endArrow=open;endFill=0;fontStyle=1" parent="1" source="KgGjZ4OBaKO0QzJk6a3O-155" target="KgGjZ4OBaKO0QzJk6a3O-154" edge="1">
          <mxGeometry relative="1" as="geometry">
            <mxPoint x="888" y="-330" as="targetPoint" />
          </mxGeometry>
        </mxCell>
        <mxCell id="KgGjZ4OBaKO0QzJk6a3O-157" value="&amp;lt;&amp;lt;extend&amp;gt;&amp;gt;" style="edgeLabel;html=1;align=center;verticalAlign=middle;resizable=0;points=[];fontStyle=1" parent="KgGjZ4OBaKO0QzJk6a3O-156" vertex="1" connectable="0">
          <mxGeometry x="-0.0739" y="1" relative="1" as="geometry">
            <mxPoint as="offset" />
          </mxGeometry>
        </mxCell>
        <mxCell id="KgGjZ4OBaKO0QzJk6a3O-158" value="Sửa khoa" style="ellipse;whiteSpace=wrap;html=1;fontStyle=1;fontSize=13;" parent="1" vertex="1">
          <mxGeometry x="700" y="-340.00239052193984" width="120" height="60" as="geometry" />
        </mxCell>
        <mxCell id="KgGjZ4OBaKO0QzJk6a3O-159" style="edgeStyle=none;rounded=0;orthogonalLoop=1;jettySize=auto;html=1;entryX=0.099;entryY=0.81;entryDx=0;entryDy=0;dashed=1;endArrow=open;endFill=0;entryPerimeter=0;fontStyle=1" parent="1" source="KgGjZ4OBaKO0QzJk6a3O-158" target="KgGjZ4OBaKO0QzJk6a3O-154" edge="1">
          <mxGeometry relative="1" as="geometry">
            <mxPoint x="1028.14" y="-334.5" as="targetPoint" />
          </mxGeometry>
        </mxCell>
        <mxCell id="KgGjZ4OBaKO0QzJk6a3O-160" value="&amp;lt;&amp;lt;extend&amp;gt;&amp;gt;" style="edgeLabel;html=1;align=center;verticalAlign=middle;resizable=0;points=[];fontStyle=1" parent="KgGjZ4OBaKO0QzJk6a3O-159" vertex="1" connectable="0">
          <mxGeometry x="-0.0739" y="1" relative="1" as="geometry">
            <mxPoint as="offset" />
          </mxGeometry>
        </mxCell>
        <mxCell id="KgGjZ4OBaKO0QzJk6a3O-161" value="Xóa khoa" style="ellipse;whiteSpace=wrap;html=1;fontStyle=1;fontSize=13;" parent="1" vertex="1">
          <mxGeometry x="830" y="-320.00239052193984" width="120" height="60" as="geometry" />
        </mxCell>
        <mxCell id="KgGjZ4OBaKO0QzJk6a3O-162" style="edgeStyle=none;rounded=0;orthogonalLoop=1;jettySize=auto;html=1;entryX=0.396;entryY=0.976;entryDx=0;entryDy=0;dashed=1;endArrow=open;endFill=0;entryPerimeter=0;fontStyle=1" parent="1" source="KgGjZ4OBaKO0QzJk6a3O-161" target="KgGjZ4OBaKO0QzJk6a3O-154" edge="1">
          <mxGeometry relative="1" as="geometry">
            <mxPoint x="1168" y="-360" as="targetPoint" />
          </mxGeometry>
        </mxCell>
        <mxCell id="KgGjZ4OBaKO0QzJk6a3O-163" value="&amp;lt;&amp;lt;extend&amp;gt;&amp;gt;" style="edgeLabel;html=1;align=center;verticalAlign=middle;resizable=0;points=[];fontStyle=1" parent="KgGjZ4OBaKO0QzJk6a3O-162" vertex="1" connectable="0">
          <mxGeometry x="-0.0739" y="1" relative="1" as="geometry">
            <mxPoint as="offset" />
          </mxGeometry>
        </mxCell>
        <mxCell id="KgGjZ4OBaKO0QzJk6a3O-178" value="Thêm ngành" style="ellipse;whiteSpace=wrap;html=1;fontStyle=1;fontSize=13;" parent="1" vertex="1">
          <mxGeometry x="979.85" y="-329.00239052193984" width="120" height="60" as="geometry" />
        </mxCell>
        <mxCell id="KgGjZ4OBaKO0QzJk6a3O-179" style="edgeStyle=none;rounded=0;orthogonalLoop=1;jettySize=auto;html=1;entryX=0.685;entryY=0.949;entryDx=0;entryDy=0;dashed=1;endArrow=open;endFill=0;entryPerimeter=0;fontStyle=1" parent="1" source="KgGjZ4OBaKO0QzJk6a3O-178" target="KgGjZ4OBaKO0QzJk6a3O-154" edge="1">
          <mxGeometry relative="1" as="geometry">
            <mxPoint x="1067.85" y="-370" as="targetPoint" />
          </mxGeometry>
        </mxCell>
        <mxCell id="KgGjZ4OBaKO0QzJk6a3O-180" value="&amp;lt;&amp;lt;extend&amp;gt;&amp;gt;" style="edgeLabel;html=1;align=center;verticalAlign=middle;resizable=0;points=[];fontStyle=1" parent="KgGjZ4OBaKO0QzJk6a3O-179" vertex="1" connectable="0">
          <mxGeometry x="-0.0739" y="1" relative="1" as="geometry">
            <mxPoint as="offset" />
          </mxGeometry>
        </mxCell>
        <mxCell id="KgGjZ4OBaKO0QzJk6a3O-181" value="Sửa ngành" style="ellipse;whiteSpace=wrap;html=1;fontStyle=1;fontSize=13;" parent="1" vertex="1">
          <mxGeometry x="1094.6699999999998" y="-380.00239052193984" width="120" height="60" as="geometry" />
        </mxCell>
        <mxCell id="KgGjZ4OBaKO0QzJk6a3O-182" style="edgeStyle=none;rounded=0;orthogonalLoop=1;jettySize=auto;html=1;entryX=0.958;entryY=0.647;entryDx=0;entryDy=0;dashed=1;endArrow=open;endFill=0;entryPerimeter=0;fontStyle=1" parent="1" source="KgGjZ4OBaKO0QzJk6a3O-181" target="KgGjZ4OBaKO0QzJk6a3O-154" edge="1">
          <mxGeometry relative="1" as="geometry">
            <mxPoint x="1056.82" y="-410" as="targetPoint" />
          </mxGeometry>
        </mxCell>
        <mxCell id="KgGjZ4OBaKO0QzJk6a3O-183" value="&amp;lt;&amp;lt;extend&amp;gt;&amp;gt;" style="edgeLabel;html=1;align=center;verticalAlign=middle;resizable=0;points=[];fontStyle=1" parent="KgGjZ4OBaKO0QzJk6a3O-182" vertex="1" connectable="0">
          <mxGeometry x="-0.0739" y="1" relative="1" as="geometry">
            <mxPoint as="offset" />
          </mxGeometry>
        </mxCell>
        <mxCell id="KgGjZ4OBaKO0QzJk6a3O-184" value="Xóa ngành" style="ellipse;whiteSpace=wrap;html=1;fontStyle=1;fontSize=13;" parent="1" vertex="1">
          <mxGeometry x="1112.52" y="-456.00239052193984" width="120" height="60" as="geometry" />
        </mxCell>
        <mxCell id="KgGjZ4OBaKO0QzJk6a3O-185" style="edgeStyle=none;rounded=0;orthogonalLoop=1;jettySize=auto;html=1;entryX=0.922;entryY=0.231;entryDx=0;entryDy=0;dashed=1;endArrow=open;endFill=0;entryPerimeter=0;fontStyle=1" parent="1" source="KgGjZ4OBaKO0QzJk6a3O-184" target="KgGjZ4OBaKO0QzJk6a3O-154" edge="1">
          <mxGeometry relative="1" as="geometry">
            <mxPoint x="1084.67" y="-490" as="targetPoint" />
          </mxGeometry>
        </mxCell>
        <mxCell id="KgGjZ4OBaKO0QzJk6a3O-186" value="&amp;lt;&amp;lt;extend&amp;gt;&amp;gt;" style="edgeLabel;html=1;align=center;verticalAlign=middle;resizable=0;points=[];fontStyle=1" parent="KgGjZ4OBaKO0QzJk6a3O-185" vertex="1" connectable="0">
          <mxGeometry x="-0.0739" y="1" relative="1" as="geometry">
            <mxPoint as="offset" />
          </mxGeometry>
        </mxCell>
        <mxCell id="KgGjZ4OBaKO0QzJk6a3O-187" style="rounded=0;orthogonalLoop=1;jettySize=auto;html=1;endArrow=none;startFill=0;entryX=0.718;entryY=0.953;entryDx=0;entryDy=0;entryPerimeter=0;fontStyle=1" parent="1" source="96Rs1fj9_P6RKk6u0Oii-11" target="KgGjZ4OBaKO0QzJk6a3O-136" edge="1">
          <mxGeometry relative="1" as="geometry">
            <mxPoint x="960" y="-180" as="targetPoint" />
          </mxGeometry>
        </mxCell>
        <mxCell id="96Rs1fj9_P6RKk6u0Oii-128" value="Xóa người dùng" style="ellipse;whiteSpace=wrap;html=1;fontStyle=1;fontSize=13;" parent="1" vertex="1">
          <mxGeometry x="1080.14" y="120" width="120" height="60" as="geometry" />
        </mxCell>
        <mxCell id="bydtYof8P61KNAazuHfW-27" value="Xóa lớp học thuật" style="ellipse;whiteSpace=wrap;html=1;fontStyle=1;fontSize=13;" parent="1" vertex="1">
          <mxGeometry x="998.85" y="30" width="120" height="60" as="geometry" />
        </mxCell>
      </root>
    </mxGraphModel>
  </diagram>
</mxfile>
